<svg id="visual" viewBox="0 0 960 540" width="960" height="540" xmlns="http://www.w3.org/2000/svg" xmlns:xlink="http://www.w3.org/1999/xlink" version="1.1"><rect x="0" y="0" width="960" height="540" fill="#111827"></rect><defs><linearGradient id="grad1_0" x1="43.8%" y1="0%" x2="100%" y2="100%"><stop offset="14.444444444444446%" stop-color="#111827" stop-opacity="1"></stop><stop offset="85.55555555555554%" stop-color="#111827" stop-opacity="1"></stop></linearGradient></defs><defs><linearGradient id="grad2_0" x1="0%" y1="0%" x2="56.3%" y2="100%"><stop offset="14.444444444444446%" stop-color="#111827" stop-opacity="1"></stop><stop offset="85.55555555555554%" stop-color="#111827" stop-opacity="1"></stop></linearGradient></defs><g transform="translate(960, 0)"><path d="M0 270C-17.8 267.3 -35.7 264.6 -51.1 257C-66.5 249.3 -79.5 236.7 -96.1 231.9C-112.6 227 -132.7 229.9 -150 224.5C-167.3 219.1 -181.8 205.3 -186.7 186.7C-191.5 168 -186.7 144.5 -192.1 128.3C-197.4 112.2 -212.9 103.4 -219 90.7C-225 78 -221.6 61.2 -228.5 45.5C-235.5 29.7 -252.7 14.8 -270 0L0 0Z" fill="#3b82f6"></path></g><g transform="translate(0, 540)"><path d="M0 -270C17.3 -265.9 34.6 -261.8 50.7 -255C66.8 -248.2 81.6 -238.8 94.9 -229.1C108.2 -219.4 119.9 -209.5 136.7 -204.5C153.5 -199.5 175.4 -199.5 190.9 -190.9C206.4 -182.4 215.5 -165.4 222 -148.3C228.5 -131.3 232.3 -114.3 236.5 -98C240.8 -81.7 245.4 -66.1 251.1 -49.9C256.7 -33.7 263.4 -16.9 270 0L0 0Z" fill="#3b82f6"></path></g></svg>