<svg width="50" height="50" viewBox="0 0 50 50" fill="none" xmlns="http://www.w3.org/2000/svg">
<g clip-path="url(#clip0_25_20)">
<path d="M0 0V50H50V0H0ZM37.8125 27.1875C37.6758 28.3008 37.4414 29.4434 37.041 30.4883C35.8691 33.4863 33.5254 35.1367 30.4199 35.6348C28.6426 35.918 26.8164 35.9277 24.8437 36.0742C23.0762 35.918 21.1328 35.8984 19.248 35.5664C15.5957 34.9219 13.1152 32.3633 12.3926 28.7012C12.0215 26.8359 11.9141 24.9609 12.4902 23.1055C12.793 22.1484 13.291 21.2988 13.9355 20.5273C14.0234 20.4297 14.1016 20.2832 14.0918 20.1562C13.9844 18.4766 14.1797 16.8164 14.6777 15.2148C15.0879 13.877 14.7852 13.9551 16.2695 14.3457C18.0566 14.8145 19.6191 15.7812 21.1523 16.7871C21.3281 16.9043 21.6016 16.9531 21.8164 16.9141C23.9844 16.582 26.1426 16.5625 28.3105 16.9434C28.4668 16.9727 28.6719 16.9141 28.8184 16.8262C30.1367 15.9668 31.4941 15.1953 32.9785 14.6582C33.5156 14.4629 34.082 14.3359 34.6289 14.1699C34.873 14.1016 34.9805 14.1895 35.0684 14.4238C35.7324 16.2793 36.0059 18.1836 35.9082 20.1465C35.8984 20.2539 35.957 20.4004 36.0254 20.4883C37.6953 22.4219 38.1152 24.7266 37.8125 27.1875Z" fill="#E5E7EB"/>
<path d="M31.2598 24.7461C30.4199 24.5996 29.541 24.6191 28.6817 24.668C26.7285 24.7754 24.7754 24.9609 22.8223 24.7852C21.8945 24.6973 20.957 24.6094 20.0195 24.6289C18.3203 24.6582 16.8945 25.2148 16.0547 26.8359C15.6348 27.6367 15.5371 28.4961 15.5664 29.3848C15.6348 31.8848 16.7188 33.3105 19.1016 34.0234C21.0156 34.5898 22.9785 34.668 24.9512 34.6289C25.6836 34.6289 26.416 34.668 27.1485 34.6191C28.6621 34.5313 30.1465 34.3066 31.582 33.7793C33.0664 33.2324 33.9551 32.1875 34.2774 30.6738C34.4043 30.0879 34.4629 29.4727 34.4531 28.877C34.4336 26.8555 33.0664 25.0488 31.2598 24.7461ZM21.6504 31.3574C21.0156 32.0508 20.0977 32.0605 19.4434 31.3867C18.9649 30.8984 18.6914 30.1465 18.6914 29.209C18.711 28.5742 18.8965 27.8809 19.4434 27.3242C20.0977 26.6504 21.0156 26.6602 21.6504 27.3438C22.6074 28.3789 22.6074 30.3223 21.6504 31.3574ZM30.5274 31.4063C29.9317 32.0215 29.0723 32.041 28.4375 31.4746C27.3438 30.4785 27.3438 28.2617 28.4375 27.2559C29.0625 26.6797 29.9219 26.6992 30.5274 27.3145C31.084 27.8809 31.2695 28.5938 31.2988 29.3555C31.2695 30.127 31.0742 30.8301 30.5274 31.4063Z" fill="#E5E7EB"/>
</g>
<defs>
<clipPath id="clip0_25_20">
<rect width="50" height="50" rx="8" fill="white"/>
</clipPath>
</defs>
</svg>
