<svg id="visual" viewBox="0 0 960 540" width="960" height="540" xmlns="http://www.w3.org/2000/svg" xmlns:xlink="http://www.w3.org/1999/xlink" version="1.1"><path d="M0 409L17.8 405C35.7 401 71.3 393 106.8 386C142.3 379 177.7 373 213.2 376.2C248.7 379.3 284.3 391.7 320 399.3C355.7 407 391.3 410 426.8 409.7C462.3 409.3 497.7 405.7 533.2 405.7C568.7 405.7 604.3 409.3 640 404.2C675.7 399 711.3 385 746.8 379.3C782.3 373.7 817.7 376.3 853.2 379.2C888.7 382 924.3 385 942.2 386.5L960 388L960 541L942.2 541C924.3 541 888.7 541 853.2 541C817.7 541 782.3 541 746.8 541C711.3 541 675.7 541 640 541C604.3 541 568.7 541 533.2 541C497.7 541 462.3 541 426.8 541C391.3 541 355.7 541 320 541C284.3 541 248.7 541 213.2 541C177.7 541 142.3 541 106.8 541C71.3 541 35.7 541 17.8 541L0 541Z" fill="#93c5fd"></path><path d="M0 386L17.8 388.7C35.7 391.3 71.3 396.7 106.8 396.3C142.3 396 177.7 390 213.2 391.2C248.7 392.3 284.3 400.7 320 402.3C355.7 404 391.3 399 426.8 394.3C462.3 389.7 497.7 385.3 533.2 383.7C568.7 382 604.3 383 640 390.7C675.7 398.3 711.3 412.7 746.8 412.8C782.3 413 817.7 399 853.2 394.5C888.7 390 924.3 395 942.2 397.5L960 400L960 541L942.2 541C924.3 541 888.7 541 853.2 541C817.7 541 782.3 541 746.8 541C711.3 541 675.7 541 640 541C604.3 541 568.7 541 533.2 541C497.7 541 462.3 541 426.8 541C391.3 541 355.7 541 320 541C284.3 541 248.7 541 213.2 541C177.7 541 142.3 541 106.8 541C71.3 541 35.7 541 17.8 541L0 541Z" fill="#85bcfd"></path><path d="M0 424L17.8 424.7C35.7 425.3 71.3 426.7 106.8 429.5C142.3 432.3 177.7 436.7 213.2 438.8C248.7 441 284.3 441 320 434.5C355.7 428 391.3 415 426.8 411.2C462.3 407.3 497.7 412.7 533.2 412.8C568.7 413 604.3 408 640 409.2C675.7 410.3 711.3 417.7 746.8 417.5C782.3 417.3 817.7 409.7 853.2 406.2C888.7 402.7 924.3 403.3 942.2 403.7L960 404L960 541L942.2 541C924.3 541 888.7 541 853.2 541C817.7 541 782.3 541 746.8 541C711.3 541 675.7 541 640 541C604.3 541 568.7 541 533.2 541C497.7 541 462.3 541 426.8 541C391.3 541 355.7 541 320 541C284.3 541 248.7 541 213.2 541C177.7 541 142.3 541 106.8 541C71.3 541 35.7 541 17.8 541L0 541Z" fill="#77b3fd"></path><path d="M0 439L17.8 439.7C35.7 440.3 71.3 441.7 106.8 445C142.3 448.3 177.7 453.7 213.2 452C248.7 450.3 284.3 441.7 320 438.8C355.7 436 391.3 439 426.8 437.3C462.3 435.7 497.7 429.3 533.2 427C568.7 424.7 604.3 426.3 640 425.8C675.7 425.3 711.3 422.7 746.8 422.2C782.3 421.7 817.7 423.3 853.2 423.8C888.7 424.3 924.3 423.7 942.2 423.3L960 423L960 541L942.2 541C924.3 541 888.7 541 853.2 541C817.7 541 782.3 541 746.8 541C711.3 541 675.7 541 640 541C604.3 541 568.7 541 533.2 541C497.7 541 462.3 541 426.8 541C391.3 541 355.7 541 320 541C284.3 541 248.7 541 213.2 541C177.7 541 142.3 541 106.8 541C71.3 541 35.7 541 17.8 541L0 541Z" fill="#6aaafc"></path><path d="M0 450L17.8 454.2C35.7 458.3 71.3 466.7 106.8 468.5C142.3 470.3 177.7 465.7 213.2 461.3C248.7 457 284.3 453 320 452.7C355.7 452.3 391.3 455.7 426.8 459.5C462.3 463.3 497.7 467.7 533.2 468.8C568.7 470 604.3 468 640 464.2C675.7 460.3 711.3 454.7 746.8 451.5C782.3 448.3 817.7 447.7 853.2 446.5C888.7 445.3 924.3 443.7 942.2 442.8L960 442L960 541L942.2 541C924.3 541 888.7 541 853.2 541C817.7 541 782.3 541 746.8 541C711.3 541 675.7 541 640 541C604.3 541 568.7 541 533.2 541C497.7 541 462.3 541 426.8 541C391.3 541 355.7 541 320 541C284.3 541 248.7 541 213.2 541C177.7 541 142.3 541 106.8 541C71.3 541 35.7 541 17.8 541L0 541Z" fill="#5da0fb"></path><path d="M0 484L17.8 481.2C35.7 478.3 71.3 472.7 106.8 470.2C142.3 467.7 177.7 468.3 213.2 473.2C248.7 478 284.3 487 320 489.5C355.7 492 391.3 488 426.8 484.7C462.3 481.3 497.7 478.7 533.2 476.5C568.7 474.3 604.3 472.7 640 475.7C675.7 478.7 711.3 486.3 746.8 490.2C782.3 494 817.7 494 853.2 492.5C888.7 491 924.3 488 942.2 486.5L960 485L960 541L942.2 541C924.3 541 888.7 541 853.2 541C817.7 541 782.3 541 746.8 541C711.3 541 675.7 541 640 541C604.3 541 568.7 541 533.2 541C497.7 541 462.3 541 426.8 541C391.3 541 355.7 541 320 541C284.3 541 248.7 541 213.2 541C177.7 541 142.3 541 106.8 541C71.3 541 35.7 541 17.8 541L0 541Z" fill="#5096fa"></path><path d="M0 508L17.8 506C35.7 504 71.3 500 106.8 497.5C142.3 495 177.7 494 213.2 494.5C248.7 495 284.3 497 320 500.2C355.7 503.3 391.3 507.7 426.8 505C462.3 502.3 497.7 492.7 533.2 490.5C568.7 488.3 604.3 493.7 640 494C675.7 494.3 711.3 489.7 746.8 487.5C782.3 485.3 817.7 485.7 853.2 490C888.7 494.3 924.3 502.7 942.2 506.8L960 511L960 541L942.2 541C924.3 541 888.7 541 853.2 541C817.7 541 782.3 541 746.8 541C711.3 541 675.7 541 640 541C604.3 541 568.7 541 533.2 541C497.7 541 462.3 541 426.8 541C391.3 541 355.7 541 320 541C284.3 541 248.7 541 213.2 541C177.7 541 142.3 541 106.8 541C71.3 541 35.7 541 17.8 541L0 541Z" fill="#458cf8"></path><path d="M0 506L17.8 507.3C35.7 508.7 71.3 511.3 106.8 512.8C142.3 514.3 177.7 514.7 213.2 514.2C248.7 513.7 284.3 512.3 320 510.8C355.7 509.3 391.3 507.7 426.8 507.5C462.3 507.3 497.7 508.7 533.2 509.3C568.7 510 604.3 510 640 508.8C675.7 507.7 711.3 505.3 746.8 507C782.3 508.7 817.7 514.3 853.2 517.7C888.7 521 924.3 522 942.2 522.5L960 523L960 541L942.2 541C924.3 541 888.7 541 853.2 541C817.7 541 782.3 541 746.8 541C711.3 541 675.7 541 640 541C604.3 541 568.7 541 533.2 541C497.7 541 462.3 541 426.8 541C391.3 541 355.7 541 320 541C284.3 541 248.7 541 213.2 541C177.7 541 142.3 541 106.8 541C71.3 541 35.7 541 17.8 541L0 541Z" fill="#3b82f6"></path></svg>