<svg id="visual" viewBox="0 0 960 540" width="960" height="540" xmlns="http://www.w3.org/2000/svg" xmlns:xlink="http://www.w3.org/1999/xlink" version="1.1"><path d="M0 319L22.8 317.2C45.7 315.3 91.3 311.7 137 319.3C182.7 327 228.3 346 274 347C319.7 348 365.3 331 411.2 329.3C457 327.7 503 341.3 548.8 351.5C594.7 361.7 640.3 368.3 686 364.5C731.7 360.7 777.3 346.3 823 336.3C868.7 326.3 914.3 320.7 937.2 317.8L960 315L960 541L937.2 541C914.3 541 868.7 541 823 541C777.3 541 731.7 541 686 541C640.3 541 594.7 541 548.8 541C503 541 457 541 411.2 541C365.3 541 319.7 541 274 541C228.3 541 182.7 541 137 541C91.3 541 45.7 541 22.8 541L0 541Z" fill="#93c5fd"></path><path d="M0 368L22.8 372.5C45.7 377 91.3 386 137 386.2C182.7 386.3 228.3 377.7 274 372.8C319.7 368 365.3 367 411.2 368.8C457 370.7 503 375.3 548.8 374.2C594.7 373 640.3 366 686 366.2C731.7 366.3 777.3 373.7 823 376.7C868.7 379.7 914.3 378.3 937.2 377.7L960 377L960 541L937.2 541C914.3 541 868.7 541 823 541C777.3 541 731.7 541 686 541C640.3 541 594.7 541 548.8 541C503 541 457 541 411.2 541C365.3 541 319.7 541 274 541C228.3 541 182.7 541 137 541C91.3 541 45.7 541 22.8 541L0 541Z" fill="#7ab5fd"></path><path d="M0 400L22.8 403.2C45.7 406.3 91.3 412.7 137 412C182.7 411.3 228.3 403.7 274 399.2C319.7 394.7 365.3 393.3 411.2 397.7C457 402 503 412 548.8 417.3C594.7 422.7 640.3 423.3 686 426.7C731.7 430 777.3 436 823 435C868.7 434 914.3 426 937.2 422L960 418L960 541L937.2 541C914.3 541 868.7 541 823 541C777.3 541 731.7 541 686 541C640.3 541 594.7 541 548.8 541C503 541 457 541 411.2 541C365.3 541 319.7 541 274 541C228.3 541 182.7 541 137 541C91.3 541 45.7 541 22.8 541L0 541Z" fill="#63a5fc"></path><path d="M0 468L22.8 469.5C45.7 471 91.3 474 137 472.3C182.7 470.7 228.3 464.3 274 459.5C319.7 454.7 365.3 451.3 411.2 452.5C457 453.7 503 459.3 548.8 460.3C594.7 461.3 640.3 457.7 686 455.7C731.7 453.7 777.3 453.3 823 457.8C868.7 462.3 914.3 471.7 937.2 476.3L960 481L960 541L937.2 541C914.3 541 868.7 541 823 541C777.3 541 731.7 541 686 541C640.3 541 594.7 541 548.8 541C503 541 457 541 411.2 541C365.3 541 319.7 541 274 541C228.3 541 182.7 541 137 541C91.3 541 45.7 541 22.8 541L0 541Z" fill="#4d94fa"></path><path d="M0 498L22.8 497C45.7 496 91.3 494 137 492.7C182.7 491.3 228.3 490.7 274 489.8C319.7 489 365.3 488 411.2 485.7C457 483.3 503 479.7 548.8 477.7C594.7 475.7 640.3 475.3 686 481C731.7 486.7 777.3 498.3 823 498.2C868.7 498 914.3 486 937.2 480L960 474L960 541L937.2 541C914.3 541 868.7 541 823 541C777.3 541 731.7 541 686 541C640.3 541 594.7 541 548.8 541C503 541 457 541 411.2 541C365.3 541 319.7 541 274 541C228.3 541 182.7 541 137 541C91.3 541 45.7 541 22.8 541L0 541Z" fill="#3b82f6"></path></svg>