<svg id="visual" viewBox="0 0 900 600" width="900" height="600" xmlns="http://www.w3.org/2000/svg" xmlns:xlink="http://www.w3.org/1999/xlink" version="1.1"><path d="M0 387L129 387L129 399L257 399L257 376L386 376L386 388L514 388L514 366L643 366L643 407L771 407L771 345L900 345L900 371L900 601L900 601L771 601L771 601L643 601L643 601L514 601L514 601L386 601L386 601L257 601L257 601L129 601L129 601L0 601Z" fill="#93c5fd"></path><path d="M0 433L129 433L129 454L257 454L257 417L386 417L386 491L514 491L514 441L643 441L643 477L771 477L771 467L900 467L900 465L900 601L900 601L771 601L771 601L643 601L643 601L514 601L514 601L386 601L386 601L257 601L257 601L129 601L129 601L0 601Z" fill="#63a5fc"></path><path d="M0 547L129 547L129 525L257 525L257 527L386 527L386 560L514 560L514 525L643 525L643 527L771 527L771 557L900 557L900 526L900 601L900 601L771 601L771 601L643 601L643 601L514 601L514 601L386 601L386 601L257 601L257 601L129 601L129 601L0 601Z" fill="#3b82f6"></path></svg>