<svg id="visual" viewBox="0 0 960 540" width="960" height="540" xmlns="http://www.w3.org/2000/svg" xmlns:xlink="http://www.w3.org/1999/xlink" version="1.1"><path d="M0 119L17.8 108.7C35.7 98.3 71.3 77.7 106.8 74.8C142.3 72 177.7 87 213.2 99.2C248.7 111.3 284.3 120.7 320 117.3C355.7 114 391.3 98 426.8 89.8C462.3 81.7 497.7 81.3 533.2 78.8C568.7 76.3 604.3 71.7 640 69.8C675.7 68 711.3 69 746.8 79.7C782.3 90.3 817.7 110.7 853.2 121.2C888.7 131.7 924.3 132.3 942.2 132.7L960 133L960 0L942.2 0C924.3 0 888.7 0 853.2 0C817.7 0 782.3 0 746.8 0C711.3 0 675.7 0 640 0C604.3 0 568.7 0 533.2 0C497.7 0 462.3 0 426.8 0C391.3 0 355.7 0 320 0C284.3 0 248.7 0 213.2 0C177.7 0 142.3 0 106.8 0C71.3 0 35.7 0 17.8 0L0 0Z" fill="#3b82f6" stroke-linecap="round" stroke-linejoin="miter"></path></svg>